<?xml version="1.0" standalone="no"?>
<!DOCTYPE svg PUBLIC "-//W3C//DTD SVG 20010904//EN"
 "http://www.w3.org/TR/2001/REC-SVG-20010904/DTD/svg10.dtd">
<svg version="1.0" xmlns="http://www.w3.org/2000/svg"
 width="256.000000pt" height="256.000000pt" viewBox="0 0 256.000000 256.000000"
 preserveAspectRatio="xMidYMid meet">
<metadata>
Created by potrace 1.14, written by Peter Selinger 2001-2017
</metadata>
<g transform="translate(0.000000,256.000000) scale(0.100000,-0.100000)"
fill="#000000" stroke="none">
<path d="M1193 2496 c-73 -33 -95 -46 -76 -46 6 0 31 -12 54 -26 41 -23 42
-25 13 -19 -29 5 -31 3 -44 -36 -8 -22 -20 -43 -27 -46 -6 -3 -27 -19 -46 -36
-20 -19 -101 -62 -194 -104 l-161 -72 -88 39 c-49 21 -90 37 -92 35 -2 -2 3
-16 11 -32 21 -42 30 -86 16 -78 -6 4 -14 2 -18 -4 -6 -8 -32 -1 -91 24 -45
19 -85 33 -87 31 -3 -2 1 -39 7 -81 6 -42 10 -78 8 -80 -12 -10 -90 -45 -102
-45 -8 0 -59 22 -113 49 l-98 50 -3 -32 c-1 -18 3 -124 11 -237 l13 -205 168
-250 c198 -293 198 -293 185 -235 -5 23 -8 45 -5 47 3 3 8 -8 12 -23 3 -16 10
-46 15 -66 7 -29 149 -253 192 -303 9 -12 141 -211 262 -398 82 -127 84 -129
166 -177 46 -27 86 -47 90 -44 4 2 0 22 -7 45 l-15 41 48 52 c51 55 71 71 80
62 3 -3 32 9 65 25 33 17 63 28 66 25 3 -3 0 -23 -6 -45 -16 -52 -15 -71 5
-93 14 -15 14 -24 5 -57 -7 -21 -12 -43 -12 -49 0 -6 36 10 81 36 74 43 86 55
140 135 75 110 76 113 49 142 -25 26 -21 54 7 56 10 1 32 2 48 3 32 1 62 36
143 165 21 32 77 117 126 189 l88 131 -26 34 c-14 19 -26 38 -26 43 0 5 25 26
56 48 l56 38 -7 -48 c-7 -47 0 -39 169 210 112 165 176 269 176 285 1 14 7
121 15 236 7 116 12 211 11 212 -3 3 -287 124 -820 349 -214 90 -396 164 -405
163 -9 0 -49 -15 -88 -33z m92 -423 c-4 -29 -12 -44 -26 -48 -10 -4 -19 -10
-19 -14 0 -4 -16 -13 -35 -20 -19 -7 -35 -17 -35 -22 0 -5 -11 -9 -25 -9 -14
0 -25 -4 -25 -9 0 -4 -13 -8 -30 -7 -16 1 -30 4 -30 8 0 5 -4 7 -8 5 -11 -3
-152 56 -152 65 0 3 12 11 28 16 15 6 101 44 192 85 l165 74 3 -41 c2 -22 1
-60 -3 -83z m-608 -211 c-3 -16 -22 -45 -42 -65 -20 -20 -34 -41 -30 -47 4 -6
-19 2 -49 17 -31 15 -56 30 -56 34 0 5 163 86 179 88 2 1 1 -12 -2 -27z m223
-72 l79 -40 -30 -82 c-34 -91 -42 -108 -33 -60 6 29 4 31 -30 37 -20 4 -39 11
-42 17 -7 11 -33 168 -27 168 2 0 39 -18 83 -40z m-55 -218 c17 -16 120 -167
230 -335 110 -168 202 -306 205 -306 3 -1 104 148 225 330 l220 332 194 99
c172 88 192 96 176 71 -10 -15 -140 -203 -290 -418 -149 -214 -319 -460 -378
-545 -124 -180 -144 -206 -150 -200 -2 3 -174 250 -382 550 -209 300 -395 567
-414 594 l-35 49 185 -95 c101 -53 198 -109 214 -126z m1084 -579 c-57 -58
-124 -101 -137 -89 -4 5 18 38 118 178 l33 47 25 -35 24 -36 -63 -65z m87 0
c-3 -25 -7 -47 -9 -48 -1 -1 -29 -5 -62 -8 l-60 -6 60 54 c33 30 64 54 69 55
5 0 6 -21 2 -47z m-1190 -159 l27 -46 -21 -20 -20 -21 -12 44 c-6 24 -18 54
-26 67 -13 20 -13 22 5 22 13 0 29 -16 47 -46z m290 -191 c-8 -9 -29 12 -49
49 l-19 33 37 -38 c20 -21 34 -41 31 -44z m39 37 c3 -5 -1 -10 -10 -10 -9 0
-13 5 -10 10 3 6 8 10 10 10 2 0 7 -4 10 -10z m285 0 c0 -5 -8 -10 -17 -10
-15 0 -16 2 -3 10 19 12 20 12 20 0z m78 -125 c18 -38 15 -41 -13 -15 -13 12
-22 27 -19 31 9 16 20 10 32 -16z m-429 -84 l24 -19 -21 -11 c-18 -9 -23 -8
-32 8 -22 42 -10 52 29 22z m541 -25 c0 -2 -8 -10 -17 -17 -16 -13 -17 -12 -4
4 13 16 21 21 21 13z m-87 -72 c20 -40 8 -37 -23 6 -16 22 -18 30 -8 30 8 0
22 -16 31 -36z m-50 -69 c13 -9 16 -18 10 -28 -14 -25 -64 -80 -68 -76 -5 6
28 119 35 119 3 -1 13 -7 23 -15z"/>
</g>
</svg>
