<?xml version="1.0" encoding="UTF-8" standalone="no"?>
<!DOCTYPE svg PUBLIC "-//W3C//DTD SVG 1.1//EN" "http://www.w3.org/Graphics/SVG/1.1/DTD/svg11.dtd">
<svg width="100%" height="100%" viewBox="0 0 620 278" version="1.1" xmlns="http://www.w3.org/2000/svg" xmlns:xlink="http://www.w3.org/1999/xlink" xml:space="preserve" xmlns:serif="http://www.serif.com/" style="fill-rule:evenodd;clip-rule:evenodd;stroke-linejoin:round;stroke-miterlimit:2;">
    <g id="Artboard1" transform="matrix(0.453637,0,0,0.270761,0,0)">
        <g>
            <g transform="matrix(1.13242,0,0,1.89727,255.169,897.849)">
                <path d="M76.36,-324.006L133.011,-367.118L-9.943,-39.624L-73.622,-209.869L-39.934,-235.506L-4.095,-139.692L76.36,-324.006ZM-18.5,-279.57L-33.505,-268.151L-44.695,-298.068L38.36,-361.273L13.239,-303.723L28.243,-315.142L-4.095,-241.058L-18.5,-279.57Z" style="fill:white;"/>
            </g>
            <g>
                <g transform="matrix(11.5113,0,0,19.2862,-7783.23,-8214.79)">
                    <path d="M722.59,460.245L722.59,460.933L711.39,460.933L711.39,460.245L715.646,460.245L711.438,449.749L713.55,449.749L716.99,458.101L720.43,449.749L722.542,449.749L718.318,460.245L722.59,460.245Z" style="fill:white;fill-rule:nonzero;"/>
                </g>
                <g transform="matrix(11.5113,0,0,19.2862,-7783.23,-8214.79)">
                    <path d="M736.03,460.245L736.03,460.933L722.59,460.933L722.59,460.245L726.254,460.245C725.379,459.744 724.688,459.056 724.182,458.181C723.675,457.307 723.422,456.331 723.422,455.253C723.422,453.611 723.987,452.237 725.118,451.133C726.248,450.029 727.646,449.477 729.31,449.477C730.974,449.477 732.371,450.029 733.502,451.133C734.632,452.237 735.198,453.611 735.198,455.253C735.198,456.32 734.944,457.296 734.438,458.181C733.931,459.067 733.24,459.755 732.366,460.245L736.03,460.245ZM732.11,452.389C731.352,451.6 730.419,451.205 729.31,451.205C728.2,451.205 727.264,451.6 726.502,452.389C725.739,453.179 725.358,454.136 725.358,455.261C725.358,456.387 725.739,457.344 726.502,458.133C727.264,458.923 728.2,459.317 729.31,459.317C730.419,459.317 731.355,458.923 732.118,458.133C732.88,457.344 733.262,456.387 733.262,455.261C733.262,454.136 732.878,453.179 732.11,452.389Z" style="fill:white;fill-rule:nonzero;"/>
                </g>
                <g transform="matrix(11.5113,0,0,19.2862,-7783.23,-8214.79)">
                    <path d="M746.126,460.245L746.126,460.933L736.03,460.933L736.03,460.245L737.582,460.245L737.582,449.749L739.47,449.749L739.47,459.141L744.574,459.141L744.574,460.245L746.126,460.245Z" style="fill:white;fill-rule:nonzero;"/>
                </g>
                <g transform="matrix(11.5113,0,0,19.2862,-7783.23,-8214.79)">
                    <path d="M754.75,460.245L754.75,460.933L745.086,460.933L745.086,460.245L748.974,460.245L748.974,451.477L745.582,451.477L745.582,449.749L754.254,449.749L754.254,451.477L750.862,451.477L750.862,460.245L754.75,460.245Z" style="fill:white;fill-rule:nonzero;"/>
                </g>
                <g transform="matrix(11.5113,0,0,19.2862,-7783.23,-8214.79)">
                    <path d="M766.798,460.245L766.798,460.933L763.342,460.933L760.67,457.173L758.19,457.173L758.19,460.933L754.75,460.933L754.75,460.245L756.302,460.245L756.302,449.749L760.462,449.749C762.168,449.749 763.39,450.037 764.126,450.613C764.862,451.189 765.23,452.112 765.23,453.381C765.23,455.227 764.424,456.389 762.814,456.869L765.246,460.245L766.798,460.245ZM760.542,455.461C761.608,455.461 762.334,455.296 762.718,454.965C763.102,454.635 763.294,454.104 763.294,453.373C763.294,452.643 763.096,452.141 762.702,451.869C762.307,451.597 761.603,451.461 760.59,451.461L758.19,451.461L758.19,455.461L760.542,455.461Z" style="fill:white;fill-rule:nonzero;"/>
                </g>
                <g transform="matrix(11.5113,0,0,19.2862,-7783.23,-8214.79)">
                    <path d="M779.822,460.245L779.822,460.933L776.254,460.933L775.134,458.389L769.534,458.389L768.414,460.933L764.846,460.933L764.846,460.245L766.702,460.245L771.326,449.749L773.342,449.749L777.966,460.245L779.822,460.245ZM774.366,456.645L772.334,452.037L770.302,456.645L774.366,456.645Z" style="fill:white;fill-rule:nonzero;"/>
                </g>
            </g>
        </g>
    </g>
</svg>
