<?xml version="1.0" encoding="UTF-8" standalone="no"?>
<!DOCTYPE svg PUBLIC "-//W3C//DTD SVG 1.1//EN" "http://www.w3.org/Graphics/SVG/1.1/DTD/svg11.dtd">
<svg width="100%" height="100%" viewBox="0 0 464 169" version="1.1" xmlns="http://www.w3.org/2000/svg" xmlns:xlink="http://www.w3.org/1999/xlink" xml:space="preserve" xmlns:serif="http://www.serif.com/" style="fill-rule:evenodd;clip-rule:evenodd;stroke-linejoin:round;stroke-miterlimit:2;">
    <g id="Artboard2" transform="matrix(1,0,0,1,-77.9339,-54.5115)">
        <rect x="77.934" y="54.512" width="463.498" height="168.236" style="fill:none;"/>
        <g transform="matrix(0.448471,0,0,0.267677,4.46088,2.09035)">
            <g id="Artboard1">
                <g>
                    <g transform="matrix(1.13242,0,0,1.89727,255.169,897.849)">
                        <path d="M76.36,-324.006L133.011,-367.118L-9.943,-39.624L-73.622,-209.869L-39.934,-235.506L-4.095,-139.692L76.36,-324.006ZM-18.5,-279.57L-33.505,-268.151L-44.695,-298.068L38.36,-361.273L13.239,-303.723L28.243,-315.142L-4.095,-241.058L-18.5,-279.57Z" style="fill:white;"/>
                    </g>
                    <path d="M944.523,674.856L405.794,674.856L405.794,661.587L454.786,661.587L406.346,459.159L430.658,459.159L470.257,620.238L509.856,459.159L534.168,459.159L485.544,661.587L576.898,661.587C566.825,651.925 558.871,638.656 553.046,621.78C547.21,604.924 544.298,586.101 544.298,565.31C544.298,533.642 550.802,507.143 563.821,485.851C576.829,464.559 592.921,453.913 612.076,453.913C631.231,453.913 647.312,464.559 660.332,485.851C673.339,507.143 679.855,533.642 679.855,565.31C679.855,585.889 676.931,604.712 671.106,621.78C665.27,638.868 657.316,652.137 647.255,661.587L707.298,661.587L707.298,459.159L729.031,459.159L729.031,640.295L787.785,640.295L787.785,661.587L838.434,661.587L838.434,492.486L799.388,492.486L799.388,459.159L899.214,459.159L899.214,492.486L860.168,492.486L860.168,661.587L922.789,661.587L922.789,459.159L970.676,459.159C990.314,459.159 1004.38,464.714 1012.85,475.822C1021.33,486.931 1025.56,504.732 1025.56,529.207C1025.56,564.809 1016.28,587.22 997.751,596.477L1025.75,661.587L1042.51,661.587L1095.74,459.159L1118.94,459.159L1172.17,661.587L1193.54,661.587L1193.54,674.856L1152.46,674.856L1139.57,625.792L1075.11,625.792L1062.21,674.856L1003.83,674.856L973.071,602.34L944.523,602.34L944.523,674.856ZM971.597,569.322C983.868,569.322 992.225,566.14 996.646,559.756C1001.07,553.392 1003.28,543.151 1003.28,529.052C1003.28,514.973 1001,505.292 996.462,500.046C991.915,494.8 983.811,492.177 972.15,492.177L944.523,492.177L944.523,569.322L971.597,569.322ZM1130.73,592.157L1107.34,503.286L1083.95,592.157L1130.73,592.157ZM644.308,510.075C635.582,494.858 624.842,487.24 612.076,487.24C599.299,487.24 588.524,494.858 579.752,510.075C570.969,525.311 566.584,543.768 566.584,565.465C566.584,587.181 570.969,605.638 579.752,620.855C588.524,636.091 599.299,643.69 612.076,643.69C624.842,643.69 635.617,636.091 644.4,620.855C653.172,605.638 657.569,587.181 657.569,565.465C657.569,543.768 653.149,525.311 644.308,510.075Z" style="fill:white;"/>
                </g>
            </g>
        </g>
    </g>
</svg>
